IKResults																																														
version=1																																														
nRows=7																																														
nColumns=47																																														
inDegrees=yes																																														
																																														
"Units are S.I. units (second, meters, Newtons, ...)"																																														
"If the header above contains a line with 'inDegrees', this indicates whether rotational values are in degrees (yes) or radians (no)."																																														
																																														
endheader																																														
time	r_x	r_y	r_z	t_x	t_y	t_z	sternoclavicular_r2_r	sternoclavicular_r3_r	unrotscap_r3_r	unrotscap_r2_r	acromioclavicular_r2_r	acromioclavicular_r3_r	acromioclavicular_r1_r	unrothum_r1_r	unrothum_r3_r	unrothum_r2_r	elv_angle_r	shoulder_elv_r	shoulder1_r2_r	shoulder_rot_r	elbow_flexion_r	pro_sup_r	deviation_r	flexion_r	wrist_hand_r1_r	wrist_hand_r3_r	sternoclavicular_r2_l	sternoclavicular_r3_l	unrotscap_r3_l	unrotscap_r2_l	acromioclavicular_r2_l	acromioclavicular_r3_l	acromioclavicular_r1_l	unrothum_r1_l	unrothum_r3_l	unrothum_r2_l	elv_angle_l	shoulder_elv_l	shoulder1_r2_l	shoulder_rot_l	elbow_flexion_l	pro_sup_l	deviation_l	flexion_l	wrist_hand_r1_l	wrist_hand_r3_l
5.475	-3.34757846	0.69608186	-5.11054007	0.25869716	1.30160558	-0.22222767	-4.06359529	13.06827128	-13.06827128	4.06359529	18.65627565	19.68342667	26.5170471	-26.5170471	-19.68342667	-18.65627565	82.41793901	91.60690165	-82.41793901	25.4772343	12.7740836	-48.78550214	-0.02154108	0.11476714	-1.6967614	3.28783642	-3.95348209	-8.86742906	8.86742906	3.95348209	10.60919809	-6.44597055	27.5696995	-27.5696995	6.44597055	-10.60919809	67.73459313	10.14384469	-67.73459313	12.88500477	12.15660928	-1.04795579	0.13710833	0.06703547	9.779727	1.92042469
5.48	-3.31458924	0.68308836	-5.14750395	0.25870366	1.30151452	-0.22227708	-4.08254311	13.06891327	-13.06891327	4.08254311	18.63476165	19.69070763	26.51688198	-26.51688198	-19.69070763	-18.63476165	82.32258767	91.66812755	-82.32258767	26.39472055	12.60676594	-53.35614394	-0.03348946	0.12758003	-2.65668287	3.65489867	-3.79727519	-8.87016655	8.87016655	3.79727519	10.77135402	-6.47790505	27.53302458	-27.53302458	6.47790505	-10.77135402	68.26199111	10.05708018	-68.26199111	12.5336356	12.18204185	-1.65840521	0.12638468	0.0624718	9.07838549	1.78968514
5.485	-3.33384478	0.667316	-5.11749486	0.25869446	1.30155257	-0.22230757	-4.08814193	13.04249849	-13.04249849	4.08814193	18.61716813	19.66479312	26.51434373	-26.51434373	-19.66479312	-18.61716813	82.23920033	91.59595603	-82.23920033	25.64334206	12.65935126	-49.36333153	-0.02852867	0.11642122	-2.25651255	3.33522236	-3.90358249	-8.86772786	8.86772786	3.90358249	10.66109031	-6.45545435	27.55790618	-27.55790618	6.45545435	-10.66109031	67.90325056	10.11926911	-67.90325056	12.72568969	12.1405836	-1.09685483	0.1359195	0.06643505	9.70250738	1.90322392
5.49	-3.30031669	0.64439242	-5.13332973	0.25870498	1.30151484	-0.2223608	-4.10434982	13.04099659	-13.04099659	4.10434982	18.59789886	19.66885749	26.51401056	-26.51401056	-19.66885749	-18.59789886	82.15338057	91.64136967	-82.15338057	26.41170375	12.54623957	-53.58935838	-0.03499082	0.12637061	-2.77823269	3.62025138	-3.80415205	-8.87836644	8.87836644	3.80415205	10.76288231	-6.48686981	27.53576181	-27.53576181	6.48686981	-10.76288231	68.23613547	10.0155033	-68.23613547	12.52111942	12.19740736	-1.69738815	0.1270399	0.06280173	9.12154738	1.79913696
5.495	-3.31854775	0.61325543	-5.11241397	0.25873699	1.30155159	-0.22237522	-4.10909768	13.01937914	-13.01937914	4.10909768	18.58330989	19.64770727	26.51193133	-26.51193133	-19.64770727	-18.58330989	82.0842913	91.58282253	-82.0842913	25.7206777	12.58602192	-49.70849338	-0.03347305	0.11563786	-2.65535704	3.31278072	-3.94508446	-8.88007968	8.88007968	3.94508446	10.61591244	-6.46327178	27.56941493	-27.56941493	6.46327178	-10.61591244	67.75898246	10.07096067	-67.75898246	12.75988016	12.20045583	-1.16740242	0.13609613	0.06628536	9.71399062	1.89893565
5.5	-3.27507486	0.6031721	-5.13743447	0.25871526	1.3014862	-0.22245721	-4.13397836	13.01535891	-13.01535891	4.13397836	18.55300552	19.65213761	26.51125944	-26.51125944	-19.65213761	-18.55300552	81.94899126	91.64671937	-81.94899126	25.66743166	12.47707183	-50.90160613	-0.03175731	0.13449804	-2.51668229	3.85308497	-3.74851419	-8.88645016	8.88645016	3.74851419	10.81950026	-6.50710458	27.52365807	-27.52365807	6.50710458	-10.81950026	68.42173102	9.94581414	-68.42173102	12.17551124	12.30195949	-1.12331922	0.12947425	0.06213181	9.28156987	1.7799451
5.505	-3.29554265	0.5852242	-5.11612277	0.25876695	1.30153925	-0.2224484	-4.13820666	12.9965402	-12.9965402	4.13820666	18.54019597	19.63375879	26.50944827	-26.50944827	-19.63375879	-18.54019597	81.88836136	91.59604858	-81.88836136	24.85365879	12.56715321	-47.41677487	-0.02533221	0.12108764	-1.99988601	3.46890542	-3.9274371	-8.88568815	8.88568815	3.9274371	10.63338293	-6.47348453	27.56598661	-27.56598661	6.47348453	-10.63338293	67.81688506	10.03224579	-67.81688506	12.64053193	12.24514266	-0.62436265	0.13789114	0.0681791	9.83050289	1.9531874
